<svg
  width="24"
  height="24"
  viewBox="0 0 32 32"
  fill="none"
  xmlns="http://www.w3.org/2000/svg"
>
  <path
    fill-rule="evenodd"
    clip-rule="evenodd"
    d="M25.597 8.714L20.091 10.503L12.117 4.893C11.991 4.797 11.827 4.777 11.675 4.827L10.144 5.324C9.84 5.424 9.707 5.792 9.879 6.062L13.909 12.512L7.794 14.498C7.157 14.706 6.465 14.584 5.94 14.165L4.157 12.757C4.028 12.653 3.851 12.625 3.69 12.678L2.72 12.992C2.387 13.101 2.264 13.498 2.48 13.775L4.428 16.307C5.728 17.977 7.927 18.661 9.933 18.009L29.601 11.618C30.286 11.395 30.658 10.664 30.435 9.98C30.3 9.563 29.967 9.25 29.547 9.123L27.915 8.665C27.152 8.451 26.349 8.47 25.597 8.714Z"
    fill="currentColor"
  />
  <path
    fill-rule="evenodd"
    clip-rule="evenodd"
    d="M14.398 18.689L13.059 22.456C12.92 22.847 13.29 23.227 13.684 23.099L14.942 22.691C15.042 22.658 15.13 22.595 15.191 22.51L21.045 14.5"
    fill="currentColor"
  />
</svg>
